<mxfile host="app.diagrams.net" modified="2024-07-15T16:07:52.692Z" agent="Mozilla/5.0 (Macintosh; Intel Mac OS X 10_15_7) AppleWebKit/605.1.15 (KHTML, like Gecko) Version/17.5 Safari/605.1.15" etag="kCBbawb40ZDs8ZUrxZGb" version="24.6.5" type="device">
  <diagram name="Page-1" id="uHuE6cg2GW2eRnbbnOSD">
    <mxGraphModel dx="2533" dy="2236" grid="1" gridSize="10" guides="1" tooltips="1" connect="1" arrows="1" fold="1" page="1" pageScale="1" pageWidth="827" pageHeight="1169" math="0" shadow="0">
      <root>
        <mxCell id="0" />
        <mxCell id="1" parent="0" />
        <mxCell id="J9xpBMAO4fcrb7Eu_Uhc-172" value="" style="rounded=0;whiteSpace=wrap;html=1;fillColor=#F7FAFF;strokeColor=#7CA3DB;fontSize=16;" vertex="1" parent="1">
          <mxGeometry x="230" y="240" width="260" height="300" as="geometry" />
        </mxCell>
        <mxCell id="J9xpBMAO4fcrb7Eu_Uhc-88" value="" style="group;fontSize=16;" vertex="1" connectable="0" parent="1">
          <mxGeometry x="240" y="250" width="240" height="280" as="geometry" />
        </mxCell>
        <mxCell id="J9xpBMAO4fcrb7Eu_Uhc-52" value="Selenium Web Driver Pool" style="rounded=0;whiteSpace=wrap;html=1;fontSize=16;fontStyle=1;fillColor=none;align=center;" vertex="1" parent="J9xpBMAO4fcrb7Eu_Uhc-88">
          <mxGeometry y="240" width="240" height="40" as="geometry" />
        </mxCell>
        <mxCell id="J9xpBMAO4fcrb7Eu_Uhc-53" value="Selenium Thread 1" style="rounded=0;whiteSpace=wrap;html=1;fontSize=16;horizontal=0;fillColor=none;align=center;" vertex="1" parent="J9xpBMAO4fcrb7Eu_Uhc-88">
          <mxGeometry width="50" height="240" as="geometry" />
        </mxCell>
        <mxCell id="J9xpBMAO4fcrb7Eu_Uhc-54" value="Selenium Thread 2" style="rounded=0;whiteSpace=wrap;html=1;fontSize=16;horizontal=0;fillColor=none;align=center;" vertex="1" parent="J9xpBMAO4fcrb7Eu_Uhc-88">
          <mxGeometry x="50" width="50" height="240" as="geometry" />
        </mxCell>
        <mxCell id="J9xpBMAO4fcrb7Eu_Uhc-56" value="..." style="rounded=0;whiteSpace=wrap;html=1;fontSize=16;horizontal=0;fillColor=none;align=center;" vertex="1" parent="J9xpBMAO4fcrb7Eu_Uhc-88">
          <mxGeometry x="100" width="90" height="240" as="geometry" />
        </mxCell>
        <mxCell id="J9xpBMAO4fcrb7Eu_Uhc-57" value="Selenium Thread n" style="rounded=0;whiteSpace=wrap;html=1;fontSize=16;horizontal=0;fillColor=none;align=center;" vertex="1" parent="J9xpBMAO4fcrb7Eu_Uhc-88">
          <mxGeometry x="190" width="50" height="240" as="geometry" />
        </mxCell>
        <mxCell id="J9xpBMAO4fcrb7Eu_Uhc-113" value="" style="group;fontSize=16;" vertex="1" connectable="0" parent="1">
          <mxGeometry x="-50" y="-40" width="180" height="140" as="geometry" />
        </mxCell>
        <mxCell id="J9xpBMAO4fcrb7Eu_Uhc-112" value="" style="rounded=0;whiteSpace=wrap;html=1;fillColor=#F7FAFF;strokeColor=#7CA3DB;fontSize=16;" vertex="1" parent="J9xpBMAO4fcrb7Eu_Uhc-113">
          <mxGeometry x="12.5" y="20" width="120" height="120" as="geometry" />
        </mxCell>
        <mxCell id="J9xpBMAO4fcrb7Eu_Uhc-105" value="&lt;b style=&quot;font-size: 16px;&quot;&gt;BROWSER&lt;/b&gt;" style="sketch=0;pointerEvents=1;shadow=0;dashed=0;html=1;strokeColor=none;fillColor=#111212;aspect=fixed;labelPosition=center;verticalLabelPosition=bottom;verticalAlign=top;align=center;outlineConnect=0;shape=mxgraph.vvd.web_browser;fontColor=#000000;fontSize=16;" vertex="1" parent="J9xpBMAO4fcrb7Eu_Uhc-113">
          <mxGeometry x="27.5" y="38.050000000000004" width="90" height="63.9" as="geometry" />
        </mxCell>
        <mxCell id="J9xpBMAO4fcrb7Eu_Uhc-143" value="Remote&lt;div style=&quot;font-size: 16px;&quot;&gt;Debugging Port 1&lt;/div&gt;" style="rounded=0;whiteSpace=wrap;html=1;fontSize=16;fontStyle=1" vertex="1" parent="1">
          <mxGeometry x="-60" y="120" width="165" height="50" as="geometry" />
        </mxCell>
        <mxCell id="J9xpBMAO4fcrb7Eu_Uhc-144" value="" style="shape=link;endArrow=none;html=1;rounded=1;exitX=0.5;exitY=0;exitDx=0;exitDy=0;endFill=0;strokeWidth=1;fontSize=16;entryX=0.5;entryY=1;entryDx=0;entryDy=0;strokeColor=default;" edge="1" parent="1" target="J9xpBMAO4fcrb7Eu_Uhc-143">
          <mxGeometry width="50" height="50" relative="1" as="geometry">
            <mxPoint x="265" y="250" as="sourcePoint" />
            <mxPoint x="40" y="110" as="targetPoint" />
            <Array as="points">
              <mxPoint x="265" y="220" />
              <mxPoint x="23" y="220" />
            </Array>
          </mxGeometry>
        </mxCell>
        <mxCell id="J9xpBMAO4fcrb7Eu_Uhc-145" value="" style="shape=link;endArrow=none;html=1;rounded=0;exitX=0.5;exitY=0;exitDx=0;exitDy=0;entryX=0.5;entryY=1;entryDx=0;entryDy=0;endFill=0;startArrow=none;startFill=0;fontSize=16;" edge="1" parent="1" source="J9xpBMAO4fcrb7Eu_Uhc-143" target="J9xpBMAO4fcrb7Eu_Uhc-112">
          <mxGeometry width="50" height="50" relative="1" as="geometry">
            <mxPoint x="242.5" y="40" as="sourcePoint" />
            <mxPoint x="23" y="50" as="targetPoint" />
          </mxGeometry>
        </mxCell>
        <mxCell id="J9xpBMAO4fcrb7Eu_Uhc-146" value="Remote&lt;div style=&quot;font-size: 16px;&quot;&gt;Debugging Port 2&lt;/div&gt;" style="rounded=0;whiteSpace=wrap;html=1;fontSize=16;fontStyle=1" vertex="1" parent="1">
          <mxGeometry x="125" y="120" width="165" height="50" as="geometry" />
        </mxCell>
        <mxCell id="J9xpBMAO4fcrb7Eu_Uhc-147" value="" style="shape=link;endArrow=none;html=1;rounded=1;exitX=0.5;exitY=0;exitDx=0;exitDy=0;endFill=0;strokeWidth=1;fontSize=16;entryX=0.5;entryY=1;entryDx=0;entryDy=0;" edge="1" parent="1" target="J9xpBMAO4fcrb7Eu_Uhc-146">
          <mxGeometry width="50" height="50" relative="1" as="geometry">
            <mxPoint x="315" y="250" as="sourcePoint" />
            <mxPoint x="225" y="110" as="targetPoint" />
            <Array as="points">
              <mxPoint x="315" y="200" />
              <mxPoint x="207" y="200" />
            </Array>
          </mxGeometry>
        </mxCell>
        <mxCell id="J9xpBMAO4fcrb7Eu_Uhc-148" value="" style="shape=link;endArrow=none;html=1;rounded=0;exitX=0.5;exitY=0;exitDx=0;exitDy=0;entryX=0.5;entryY=1;entryDx=0;entryDy=0;endFill=0;startArrow=none;startFill=0;fontSize=16;" edge="1" parent="1" source="J9xpBMAO4fcrb7Eu_Uhc-146" target="J9xpBMAO4fcrb7Eu_Uhc-129">
          <mxGeometry width="50" height="50" relative="1" as="geometry">
            <mxPoint x="427.5" y="40" as="sourcePoint" />
            <mxPoint x="208" y="50" as="targetPoint" />
          </mxGeometry>
        </mxCell>
        <mxCell id="J9xpBMAO4fcrb7Eu_Uhc-149" value="Remote&lt;div style=&quot;font-size: 16px;&quot;&gt;Debugging Port ...&lt;/div&gt;" style="rounded=0;whiteSpace=wrap;html=1;fontSize=16;fontStyle=1" vertex="1" parent="1">
          <mxGeometry x="311" y="120" width="165" height="50" as="geometry" />
        </mxCell>
        <mxCell id="J9xpBMAO4fcrb7Eu_Uhc-150" value="" style="shape=link;endArrow=none;html=1;rounded=1;exitX=0.5;exitY=0;exitDx=0;exitDy=0;endFill=0;strokeWidth=1;fontSize=16;entryX=0.5;entryY=1;entryDx=0;entryDy=0;" edge="1" parent="1" target="J9xpBMAO4fcrb7Eu_Uhc-149">
          <mxGeometry width="50" height="50" relative="1" as="geometry">
            <mxPoint x="385" y="250" as="sourcePoint" />
            <mxPoint x="328" y="170" as="targetPoint" />
            <Array as="points">
              <mxPoint x="385" y="190" />
              <mxPoint x="394" y="190" />
            </Array>
          </mxGeometry>
        </mxCell>
        <mxCell id="J9xpBMAO4fcrb7Eu_Uhc-151" value="" style="shape=link;endArrow=none;html=1;rounded=0;exitX=0.5;exitY=0;exitDx=0;exitDy=0;entryX=0.5;entryY=1;entryDx=0;entryDy=0;endFill=0;startArrow=none;startFill=0;fontSize=16;" edge="1" parent="1" source="J9xpBMAO4fcrb7Eu_Uhc-149" target="J9xpBMAO4fcrb7Eu_Uhc-134">
          <mxGeometry width="50" height="50" relative="1" as="geometry">
            <mxPoint x="613.5" y="40" as="sourcePoint" />
            <mxPoint x="393" y="50" as="targetPoint" />
          </mxGeometry>
        </mxCell>
        <mxCell id="J9xpBMAO4fcrb7Eu_Uhc-152" value="Remote&lt;div style=&quot;font-size: 16px;&quot;&gt;Debugging Port n&lt;/div&gt;" style="rounded=0;whiteSpace=wrap;html=1;fontSize=16;fontStyle=1" vertex="1" parent="1">
          <mxGeometry x="497" y="120" width="165" height="50" as="geometry" />
        </mxCell>
        <mxCell id="J9xpBMAO4fcrb7Eu_Uhc-153" value="" style="shape=link;endArrow=none;html=1;rounded=1;exitX=0.5;exitY=0;exitDx=0;exitDy=0;endFill=0;strokeWidth=1;fontSize=16;" edge="1" parent="1" target="J9xpBMAO4fcrb7Eu_Uhc-152">
          <mxGeometry width="50" height="50" relative="1" as="geometry">
            <mxPoint x="455" y="250" as="sourcePoint" />
            <mxPoint x="597" y="110" as="targetPoint" />
            <Array as="points">
              <mxPoint x="455" y="190" />
              <mxPoint x="580" y="190" />
            </Array>
          </mxGeometry>
        </mxCell>
        <mxCell id="J9xpBMAO4fcrb7Eu_Uhc-154" value="" style="shape=link;endArrow=none;html=1;rounded=0;exitX=0.5;exitY=0;exitDx=0;exitDy=0;entryX=0.5;entryY=1;entryDx=0;entryDy=0;endFill=0;startArrow=none;startFill=0;fontSize=16;" edge="1" parent="1" source="J9xpBMAO4fcrb7Eu_Uhc-152" target="J9xpBMAO4fcrb7Eu_Uhc-139">
          <mxGeometry width="50" height="50" relative="1" as="geometry">
            <mxPoint x="799.5" y="40" as="sourcePoint" />
            <mxPoint x="580" y="50" as="targetPoint" />
          </mxGeometry>
        </mxCell>
        <mxCell id="J9xpBMAO4fcrb7Eu_Uhc-158" value="" style="group;fontSize=16;" vertex="1" connectable="0" parent="1">
          <mxGeometry x="-520" y="150" width="320" height="210" as="geometry" />
        </mxCell>
        <mxCell id="J9xpBMAO4fcrb7Eu_Uhc-106" value="" style="rounded=0;whiteSpace=wrap;html=1;fillColor=#F7FAFF;strokeColor=#7CA3DB;fontSize=16;" vertex="1" parent="J9xpBMAO4fcrb7Eu_Uhc-158">
          <mxGeometry width="320" height="210" as="geometry" />
        </mxCell>
        <mxCell id="J9xpBMAO4fcrb7Eu_Uhc-89" value="" style="group;fontSize=16;" vertex="1" connectable="0" parent="J9xpBMAO4fcrb7Eu_Uhc-158">
          <mxGeometry x="30" y="30" width="260" height="150" as="geometry" />
        </mxCell>
        <mxCell id="J9xpBMAO4fcrb7Eu_Uhc-59" value="URL" style="rounded=0;whiteSpace=wrap;html=1;fontSize=16;fillColor=none;align=center;" vertex="1" parent="J9xpBMAO4fcrb7Eu_Uhc-89">
          <mxGeometry width="80" height="30" as="geometry" />
        </mxCell>
        <mxCell id="J9xpBMAO4fcrb7Eu_Uhc-60" value="URL" style="rounded=0;whiteSpace=wrap;html=1;fontSize=16;fillColor=none;align=center;" vertex="1" parent="J9xpBMAO4fcrb7Eu_Uhc-89">
          <mxGeometry y="40" width="80" height="30" as="geometry" />
        </mxCell>
        <mxCell id="J9xpBMAO4fcrb7Eu_Uhc-61" value="..." style="rounded=0;whiteSpace=wrap;html=1;fontSize=16;fillColor=none;strokeColor=none;align=center;" vertex="1" parent="J9xpBMAO4fcrb7Eu_Uhc-89">
          <mxGeometry y="80" width="80" height="30" as="geometry" />
        </mxCell>
        <mxCell id="J9xpBMAO4fcrb7Eu_Uhc-62" value="URL" style="rounded=0;whiteSpace=wrap;html=1;fontSize=16;fillColor=none;horizontal=1;strokeColor=default;align=center;" vertex="1" parent="J9xpBMAO4fcrb7Eu_Uhc-89">
          <mxGeometry x="90" width="80" height="30" as="geometry" />
        </mxCell>
        <mxCell id="J9xpBMAO4fcrb7Eu_Uhc-63" value="URL" style="rounded=0;whiteSpace=wrap;html=1;fontSize=16;fillColor=none;horizontal=1;strokeColor=default;align=center;" vertex="1" parent="J9xpBMAO4fcrb7Eu_Uhc-89">
          <mxGeometry x="90" y="40" width="80" height="30" as="geometry" />
        </mxCell>
        <mxCell id="J9xpBMAO4fcrb7Eu_Uhc-64" value="..." style="rounded=0;whiteSpace=wrap;html=1;fontSize=16;fillColor=none;horizontal=1;strokeColor=none;align=center;" vertex="1" parent="J9xpBMAO4fcrb7Eu_Uhc-89">
          <mxGeometry x="90" y="80" width="80" height="30" as="geometry" />
        </mxCell>
        <mxCell id="J9xpBMAO4fcrb7Eu_Uhc-65" value="URL" style="rounded=0;whiteSpace=wrap;html=1;fontSize=16;fillColor=none;align=center;" vertex="1" parent="J9xpBMAO4fcrb7Eu_Uhc-89">
          <mxGeometry y="120" width="80" height="30" as="geometry" />
        </mxCell>
        <mxCell id="J9xpBMAO4fcrb7Eu_Uhc-66" value="URL" style="rounded=0;whiteSpace=wrap;html=1;fontSize=16;fillColor=none;horizontal=1;strokeColor=default;align=center;" vertex="1" parent="J9xpBMAO4fcrb7Eu_Uhc-89">
          <mxGeometry x="90" y="120" width="80" height="30" as="geometry" />
        </mxCell>
        <mxCell id="J9xpBMAO4fcrb7Eu_Uhc-67" value="URL" style="rounded=0;whiteSpace=wrap;html=1;fontSize=16;fillColor=none;align=center;" vertex="1" parent="J9xpBMAO4fcrb7Eu_Uhc-89">
          <mxGeometry x="180" width="80" height="30" as="geometry" />
        </mxCell>
        <mxCell id="J9xpBMAO4fcrb7Eu_Uhc-68" value="URL" style="rounded=0;whiteSpace=wrap;html=1;fontSize=16;fillColor=none;align=center;" vertex="1" parent="J9xpBMAO4fcrb7Eu_Uhc-89">
          <mxGeometry x="180" y="40" width="80" height="30" as="geometry" />
        </mxCell>
        <mxCell id="J9xpBMAO4fcrb7Eu_Uhc-69" value="..." style="rounded=0;whiteSpace=wrap;html=1;fontSize=16;fillColor=none;strokeColor=none;align=center;" vertex="1" parent="J9xpBMAO4fcrb7Eu_Uhc-89">
          <mxGeometry x="180" y="80" width="80" height="30" as="geometry" />
        </mxCell>
        <mxCell id="J9xpBMAO4fcrb7Eu_Uhc-70" value="URL" style="rounded=0;whiteSpace=wrap;html=1;fontSize=16;fillColor=none;align=center;" vertex="1" parent="J9xpBMAO4fcrb7Eu_Uhc-89">
          <mxGeometry x="180" y="120" width="80" height="30" as="geometry" />
        </mxCell>
        <mxCell id="J9xpBMAO4fcrb7Eu_Uhc-159" value="" style="group;fontSize=16;" vertex="1" connectable="0" parent="1">
          <mxGeometry x="147.5" y="-20" width="120" height="120" as="geometry" />
        </mxCell>
        <mxCell id="J9xpBMAO4fcrb7Eu_Uhc-129" value="" style="rounded=0;whiteSpace=wrap;html=1;fillColor=#F7FAFF;strokeColor=#7CA3DB;fontSize=16;" vertex="1" parent="J9xpBMAO4fcrb7Eu_Uhc-159">
          <mxGeometry width="120" height="120" as="geometry" />
        </mxCell>
        <mxCell id="J9xpBMAO4fcrb7Eu_Uhc-130" value="&lt;b style=&quot;font-size: 16px;&quot;&gt;BROWSER&lt;/b&gt;" style="sketch=0;pointerEvents=1;shadow=0;dashed=0;html=1;strokeColor=none;fillColor=#111212;aspect=fixed;labelPosition=center;verticalLabelPosition=bottom;verticalAlign=top;align=center;outlineConnect=0;shape=mxgraph.vvd.web_browser;fontColor=#000000;fontSize=16;" vertex="1" parent="J9xpBMAO4fcrb7Eu_Uhc-159">
          <mxGeometry x="15" y="18.050000000000004" width="90" height="63.9" as="geometry" />
        </mxCell>
        <mxCell id="J9xpBMAO4fcrb7Eu_Uhc-160" value="" style="group;fontSize=16;" vertex="1" connectable="0" parent="1">
          <mxGeometry x="333.5" y="-20" width="120" height="120" as="geometry" />
        </mxCell>
        <mxCell id="J9xpBMAO4fcrb7Eu_Uhc-134" value="" style="rounded=0;whiteSpace=wrap;html=1;fillColor=#F7FAFF;strokeColor=#7CA3DB;fontSize=16;" vertex="1" parent="J9xpBMAO4fcrb7Eu_Uhc-160">
          <mxGeometry width="120" height="120" as="geometry" />
        </mxCell>
        <mxCell id="J9xpBMAO4fcrb7Eu_Uhc-135" value="&lt;b style=&quot;font-size: 16px;&quot;&gt;BROWSER&lt;/b&gt;" style="sketch=0;pointerEvents=1;shadow=0;dashed=0;html=1;strokeColor=none;fillColor=#111212;aspect=fixed;labelPosition=center;verticalLabelPosition=bottom;verticalAlign=top;align=center;outlineConnect=0;shape=mxgraph.vvd.web_browser;fontColor=#000000;fontSize=16;" vertex="1" parent="J9xpBMAO4fcrb7Eu_Uhc-160">
          <mxGeometry x="15" y="18.050000000000004" width="90" height="63.9" as="geometry" />
        </mxCell>
        <mxCell id="J9xpBMAO4fcrb7Eu_Uhc-161" value="" style="group;fontSize=16;" vertex="1" connectable="0" parent="1">
          <mxGeometry x="519.5" y="-20" width="120" height="120" as="geometry" />
        </mxCell>
        <mxCell id="J9xpBMAO4fcrb7Eu_Uhc-139" value="" style="rounded=0;whiteSpace=wrap;html=1;fillColor=#F7FAFF;strokeColor=#7CA3DB;fontSize=16;" vertex="1" parent="J9xpBMAO4fcrb7Eu_Uhc-161">
          <mxGeometry width="120" height="120" as="geometry" />
        </mxCell>
        <mxCell id="J9xpBMAO4fcrb7Eu_Uhc-140" value="&lt;b style=&quot;font-size: 16px;&quot;&gt;BROWSER&lt;/b&gt;" style="sketch=0;pointerEvents=1;shadow=0;dashed=0;html=1;strokeColor=none;fillColor=#111212;aspect=fixed;labelPosition=center;verticalLabelPosition=bottom;verticalAlign=top;align=center;outlineConnect=0;shape=mxgraph.vvd.web_browser;fontColor=#000000;fontSize=16;" vertex="1" parent="J9xpBMAO4fcrb7Eu_Uhc-161">
          <mxGeometry x="15" y="18.050000000000004" width="90" height="63.9" as="geometry" />
        </mxCell>
        <mxCell id="J9xpBMAO4fcrb7Eu_Uhc-164" value="" style="edgeStyle=orthogonalEdgeStyle;rounded=0;orthogonalLoop=1;jettySize=auto;html=1;strokeWidth=2;fontSize=16;" edge="1" parent="1" source="J9xpBMAO4fcrb7Eu_Uhc-163" target="J9xpBMAO4fcrb7Eu_Uhc-52">
          <mxGeometry relative="1" as="geometry" />
        </mxCell>
        <mxCell id="J9xpBMAO4fcrb7Eu_Uhc-167" value="&lt;div style=&quot;font-size: 16px;&quot;&gt;TARGET&lt;/div&gt;DATA" style="rounded=0;whiteSpace=wrap;html=1;fontSize=16;fontStyle=1" vertex="1" parent="1">
          <mxGeometry x="550" y="480" width="120" height="60" as="geometry" />
        </mxCell>
        <mxCell id="J9xpBMAO4fcrb7Eu_Uhc-168" style="edgeStyle=orthogonalEdgeStyle;rounded=0;orthogonalLoop=1;jettySize=auto;html=1;entryX=0;entryY=0.5;entryDx=0;entryDy=0;strokeWidth=2;curved=1;" edge="1" parent="1" source="J9xpBMAO4fcrb7Eu_Uhc-52" target="J9xpBMAO4fcrb7Eu_Uhc-167">
          <mxGeometry relative="1" as="geometry" />
        </mxCell>
        <mxCell id="J9xpBMAO4fcrb7Eu_Uhc-169" value="" style="group" vertex="1" connectable="0" parent="1">
          <mxGeometry x="-520" y="430" width="650" height="250" as="geometry" />
        </mxCell>
        <mxCell id="J9xpBMAO4fcrb7Eu_Uhc-107" value="" style="rounded=0;whiteSpace=wrap;html=1;fillColor=#F7FAFF;strokeColor=#7CA3DB;fontSize=16;" vertex="1" parent="J9xpBMAO4fcrb7Eu_Uhc-169">
          <mxGeometry y="-10" width="650" height="250" as="geometry" />
        </mxCell>
        <mxCell id="J9xpBMAO4fcrb7Eu_Uhc-86" value="" style="group;fontColor=#008080;fontSize=16;" vertex="1" connectable="0" parent="J9xpBMAO4fcrb7Eu_Uhc-169">
          <mxGeometry x="480" y="30" width="140" height="190" as="geometry" />
        </mxCell>
        <mxCell id="J9xpBMAO4fcrb7Eu_Uhc-71" value="BATCH 1" style="rounded=0;whiteSpace=wrap;html=1;fontSize=16;fontStyle=1;fontColor=#008C8C;" vertex="1" parent="J9xpBMAO4fcrb7Eu_Uhc-86">
          <mxGeometry y="160" width="140" height="30" as="geometry" />
        </mxCell>
        <mxCell id="J9xpBMAO4fcrb7Eu_Uhc-74" value="URL 1" style="rounded=0;whiteSpace=wrap;html=1;fontSize=16;fillColor=none;align=center;horizontal=0;fontColor=#008C8C;" vertex="1" parent="J9xpBMAO4fcrb7Eu_Uhc-86">
          <mxGeometry width="30" height="160" as="geometry" />
        </mxCell>
        <mxCell id="J9xpBMAO4fcrb7Eu_Uhc-76" value="URL 2" style="rounded=0;whiteSpace=wrap;html=1;fontSize=16;fillColor=none;align=center;horizontal=0;fontColor=#008C8C;" vertex="1" parent="J9xpBMAO4fcrb7Eu_Uhc-86">
          <mxGeometry x="30" width="30" height="160" as="geometry" />
        </mxCell>
        <mxCell id="J9xpBMAO4fcrb7Eu_Uhc-77" value="..." style="rounded=0;whiteSpace=wrap;html=1;fontSize=16;fillColor=none;align=center;horizontal=0;fontColor=#008C8C;" vertex="1" parent="J9xpBMAO4fcrb7Eu_Uhc-86">
          <mxGeometry x="60" width="50" height="160" as="geometry" />
        </mxCell>
        <mxCell id="J9xpBMAO4fcrb7Eu_Uhc-78" value="URL n" style="rounded=0;whiteSpace=wrap;html=1;fontSize=16;fillColor=none;align=center;horizontal=0;fontColor=#008C8C;" vertex="1" parent="J9xpBMAO4fcrb7Eu_Uhc-86">
          <mxGeometry x="110" width="30" height="160" as="geometry" />
        </mxCell>
        <mxCell id="J9xpBMAO4fcrb7Eu_Uhc-87" value="" style="group;fontColor=#82C700;fontSize=16;" vertex="1" connectable="0" parent="J9xpBMAO4fcrb7Eu_Uhc-169">
          <mxGeometry x="330" y="30" width="140" height="190" as="geometry" />
        </mxCell>
        <mxCell id="J9xpBMAO4fcrb7Eu_Uhc-81" value="BATCH 2" style="rounded=0;whiteSpace=wrap;html=1;fontSize=16;fontStyle=1;fontColor=#5F9100;" vertex="1" parent="J9xpBMAO4fcrb7Eu_Uhc-87">
          <mxGeometry y="160" width="140" height="30" as="geometry" />
        </mxCell>
        <mxCell id="J9xpBMAO4fcrb7Eu_Uhc-82" value="URL 1" style="rounded=0;whiteSpace=wrap;html=1;fontSize=16;fillColor=none;align=center;horizontal=0;fontColor=#5F9100;" vertex="1" parent="J9xpBMAO4fcrb7Eu_Uhc-87">
          <mxGeometry width="30" height="160" as="geometry" />
        </mxCell>
        <mxCell id="J9xpBMAO4fcrb7Eu_Uhc-83" value="URL 2" style="rounded=0;whiteSpace=wrap;html=1;fontSize=16;fillColor=none;align=center;horizontal=0;fontColor=#5F9100;" vertex="1" parent="J9xpBMAO4fcrb7Eu_Uhc-87">
          <mxGeometry x="30" width="30" height="160" as="geometry" />
        </mxCell>
        <mxCell id="J9xpBMAO4fcrb7Eu_Uhc-84" value="..." style="rounded=0;whiteSpace=wrap;html=1;fontSize=16;fillColor=none;align=center;horizontal=0;fontColor=#5F9100;" vertex="1" parent="J9xpBMAO4fcrb7Eu_Uhc-87">
          <mxGeometry x="60" width="50" height="160" as="geometry" />
        </mxCell>
        <mxCell id="J9xpBMAO4fcrb7Eu_Uhc-85" value="URL n" style="rounded=0;whiteSpace=wrap;html=1;fontSize=16;fillColor=none;align=center;horizontal=0;fontColor=#5F9100;" vertex="1" parent="J9xpBMAO4fcrb7Eu_Uhc-87">
          <mxGeometry x="110" width="30" height="160" as="geometry" />
        </mxCell>
        <mxCell id="J9xpBMAO4fcrb7Eu_Uhc-90" value="" style="group;fontColor=#D03141;fontSize=16;" vertex="1" connectable="0" parent="J9xpBMAO4fcrb7Eu_Uhc-169">
          <mxGeometry x="180" y="30" width="140" height="190" as="geometry" />
        </mxCell>
        <mxCell id="J9xpBMAO4fcrb7Eu_Uhc-91" value="BATCH ..." style="rounded=0;whiteSpace=wrap;html=1;fontSize=16;fontStyle=1;fontColor=#D03141;" vertex="1" parent="J9xpBMAO4fcrb7Eu_Uhc-90">
          <mxGeometry y="160" width="140" height="30" as="geometry" />
        </mxCell>
        <mxCell id="J9xpBMAO4fcrb7Eu_Uhc-92" value="URL 1" style="rounded=0;whiteSpace=wrap;html=1;fontSize=16;fillColor=none;align=center;horizontal=0;fontColor=#D03141;" vertex="1" parent="J9xpBMAO4fcrb7Eu_Uhc-90">
          <mxGeometry width="30" height="160" as="geometry" />
        </mxCell>
        <mxCell id="J9xpBMAO4fcrb7Eu_Uhc-93" value="URL 2" style="rounded=0;whiteSpace=wrap;html=1;fontSize=16;fillColor=none;align=center;horizontal=0;fontColor=#D03141;" vertex="1" parent="J9xpBMAO4fcrb7Eu_Uhc-90">
          <mxGeometry x="30" width="30" height="160" as="geometry" />
        </mxCell>
        <mxCell id="J9xpBMAO4fcrb7Eu_Uhc-94" value="..." style="rounded=0;whiteSpace=wrap;html=1;fontSize=16;fillColor=none;align=center;horizontal=0;fontColor=#D03141;" vertex="1" parent="J9xpBMAO4fcrb7Eu_Uhc-90">
          <mxGeometry x="60" width="50" height="160" as="geometry" />
        </mxCell>
        <mxCell id="J9xpBMAO4fcrb7Eu_Uhc-95" value="URL n" style="rounded=0;whiteSpace=wrap;html=1;fontSize=16;fillColor=none;align=center;horizontal=0;fontColor=#D03141;" vertex="1" parent="J9xpBMAO4fcrb7Eu_Uhc-90">
          <mxGeometry x="110" width="30" height="160" as="geometry" />
        </mxCell>
        <mxCell id="J9xpBMAO4fcrb7Eu_Uhc-96" value="" style="group;fontColor=#8350BD;fontSize=16;" vertex="1" connectable="0" parent="J9xpBMAO4fcrb7Eu_Uhc-169">
          <mxGeometry x="30" y="30" width="140" height="190" as="geometry" />
        </mxCell>
        <mxCell id="J9xpBMAO4fcrb7Eu_Uhc-97" value="BATCH k" style="rounded=0;whiteSpace=wrap;html=1;fontSize=16;fontStyle=1;fontColor=#8350BD;" vertex="1" parent="J9xpBMAO4fcrb7Eu_Uhc-96">
          <mxGeometry y="160" width="140" height="30" as="geometry" />
        </mxCell>
        <mxCell id="J9xpBMAO4fcrb7Eu_Uhc-98" value="URL 1" style="rounded=0;whiteSpace=wrap;html=1;fontSize=16;fillColor=none;align=center;horizontal=0;fontColor=#8350BD;" vertex="1" parent="J9xpBMAO4fcrb7Eu_Uhc-96">
          <mxGeometry width="30" height="160" as="geometry" />
        </mxCell>
        <mxCell id="J9xpBMAO4fcrb7Eu_Uhc-99" value="URL 2" style="rounded=0;whiteSpace=wrap;html=1;fontSize=16;fillColor=none;align=center;horizontal=0;fontColor=#8350BD;" vertex="1" parent="J9xpBMAO4fcrb7Eu_Uhc-96">
          <mxGeometry x="30" width="30" height="160" as="geometry" />
        </mxCell>
        <mxCell id="J9xpBMAO4fcrb7Eu_Uhc-100" value="..." style="rounded=0;whiteSpace=wrap;html=1;fontSize=16;fillColor=none;align=center;horizontal=0;fontColor=#8350BD;" vertex="1" parent="J9xpBMAO4fcrb7Eu_Uhc-96">
          <mxGeometry x="60" width="50" height="160" as="geometry" />
        </mxCell>
        <mxCell id="J9xpBMAO4fcrb7Eu_Uhc-101" value="URL n" style="rounded=0;whiteSpace=wrap;html=1;fontSize=16;fillColor=none;align=center;horizontal=0;fontColor=#8350BD;" vertex="1" parent="J9xpBMAO4fcrb7Eu_Uhc-96">
          <mxGeometry x="110" width="30" height="160" as="geometry" />
        </mxCell>
        <mxCell id="J9xpBMAO4fcrb7Eu_Uhc-170" style="edgeStyle=orthogonalEdgeStyle;rounded=0;orthogonalLoop=1;jettySize=auto;html=1;exitX=0.25;exitY=1;exitDx=0;exitDy=0;entryX=0.5;entryY=0;entryDx=0;entryDy=0;curved=1;strokeWidth=2;" edge="1" parent="1" source="J9xpBMAO4fcrb7Eu_Uhc-106" target="J9xpBMAO4fcrb7Eu_Uhc-107">
          <mxGeometry relative="1" as="geometry">
            <Array as="points">
              <mxPoint x="-440" y="380" />
              <mxPoint x="-195" y="380" />
            </Array>
          </mxGeometry>
        </mxCell>
        <mxCell id="J9xpBMAO4fcrb7Eu_Uhc-173" value="" style="group" vertex="1" connectable="0" parent="1">
          <mxGeometry x="200" y="560" width="320" height="110" as="geometry" />
        </mxCell>
        <mxCell id="J9xpBMAO4fcrb7Eu_Uhc-166" value="" style="rounded=0;whiteSpace=wrap;html=1;fillColor=#F7FAFF;strokeColor=#7CA3DB;fontSize=16;" vertex="1" parent="J9xpBMAO4fcrb7Eu_Uhc-173">
          <mxGeometry width="320" height="110" as="geometry" />
        </mxCell>
        <mxCell id="J9xpBMAO4fcrb7Eu_Uhc-165" value="" style="group;fontSize=16;" vertex="1" connectable="0" parent="J9xpBMAO4fcrb7Eu_Uhc-173">
          <mxGeometry x="20" y="15" width="280" height="80" as="geometry" />
        </mxCell>
        <mxCell id="J9xpBMAO4fcrb7Eu_Uhc-162" value="&lt;b style=&quot;font-size: 16px;&quot;&gt;&lt;font style=&quot;font-size: 16px;&quot;&gt;Port Allocator&lt;/font&gt;&lt;/b&gt;" style="rounded=0;whiteSpace=wrap;html=1;fontSize=16;" vertex="1" parent="J9xpBMAO4fcrb7Eu_Uhc-165">
          <mxGeometry x="67.5" y="50" width="145" height="30" as="geometry" />
        </mxCell>
        <mxCell id="J9xpBMAO4fcrb7Eu_Uhc-163" value="&lt;div style=&quot;font-size: 16px;&quot;&gt;&lt;b style=&quot;font-size: 16px;&quot;&gt;lock = threading.Lock() &lt;/b&gt;(Python)&lt;b style=&quot;font-size: 16px;&quot;&gt;&lt;br style=&quot;font-size: 16px;&quot;&gt;&lt;/b&gt;&lt;/div&gt;&lt;div style=&quot;font-size: 16px;&quot;&gt;(mutex - mutual exclusion)&lt;/div&gt;" style="rounded=0;whiteSpace=wrap;html=1;fontSize=16;" vertex="1" parent="J9xpBMAO4fcrb7Eu_Uhc-165">
          <mxGeometry width="280" height="50" as="geometry" />
        </mxCell>
        <mxCell id="J9xpBMAO4fcrb7Eu_Uhc-174" style="edgeStyle=orthogonalEdgeStyle;rounded=0;orthogonalLoop=1;jettySize=auto;html=1;exitX=1;exitY=0.25;exitDx=0;exitDy=0;entryX=0;entryY=0.5;entryDx=0;entryDy=0;curved=1;strokeWidth=2;" edge="1" parent="1" source="J9xpBMAO4fcrb7Eu_Uhc-107" target="J9xpBMAO4fcrb7Eu_Uhc-52">
          <mxGeometry relative="1" as="geometry" />
        </mxCell>
      </root>
    </mxGraphModel>
  </diagram>
</mxfile>
